<?xml version="1.0" encoding="UTF-8" standalone="no"?>
<!-- Created with Inkscape (http://www.inkscape.org/) -->

<svg
   version="1.1"
   id="svg1"
   width="979.84314"
   height="979.82843"
   viewBox="0 0 979.84314 979.82843"
   sodipodi:docname="home-icon-980x980.png"
   inkscape:export-filename="home-icon-980x980.svg"
   inkscape:export-xdpi="96"
   inkscape:export-ydpi="96"
   xmlns:inkscape="http://www.inkscape.org/namespaces/inkscape"
   xmlns:sodipodi="http://sodipodi.sourceforge.net/DTD/sodipodi-0.dtd"
   xmlns="http://www.w3.org/2000/svg"
   xmlns:svg="http://www.w3.org/2000/svg">
  <defs
     id="defs1" />
  <sodipodi:namedview
     id="namedview1"
     pagecolor="#505050"
     bordercolor="#ffffff"
     borderopacity="1"
     inkscape:showpageshadow="0"
     inkscape:pageopacity="0"
     inkscape:pagecheckerboard="1"
     inkscape:deskcolor="#505050" />
  <g
     inkscape:groupmode="layer"
     inkscape:label="Image"
     id="g1"
     transform="translate(-3067.4158,20.314871)">
    <ellipse
       style="fill:#ff0000;stroke:#ff0000;stroke-width:4.89009"
       id="path3-2"
       cx="3557.3374"
       cy="469.59937"
       rx="467.03088"
       ry="467.16083" />
    <path
       style="fill:#ffffff"
       d="m 3523.3578,958.35259 c -95.3209,-6.57714 -190.4316,-42.69283 -264.728,-100.52324 -23.5215,-18.30851 -50.4065,-43.47634 -68.718,-64.3288 -93.7942,-106.80964 -136.4169,-246.03002 -118.4808,-387 11.6531,-91.58904 49.3453,-177.78459 109.7589,-251 12.2169,-14.80572 47.3622,-49.951 62.1679,-62.167931 93.4139,-77.08034 206.9139,-116.58841 326,-113.47687 64.0759,1.6742 121.0555,13.89173 179,38.38106 77.037,32.55848 144.5832,84.771901 197.3288,152.535761 31.8689,40.94291 58.2448,90.20149 75.6659,141.31061 52.6708,154.52352 23.8768,327.68555 -75.895,456.41737 -24.5409,31.66423 -56.2552,63.53103 -87.186,87.60517 -95.2088,74.10306 -214.5896,110.54922 -334.9137,102.24687 z m 80.3774,-50.27938 c 120.8001,-13.4004 228.6124,-73.773 302.6188,-169.46008 44.7446,-57.85275 74.0308,-125.12653 85.9464,-197.42861 4.5132,-27.38541 5.5176,-40.43463 5.5176,-71.68397 0,-31.24934 -1.0044,-44.29856 -5.5176,-71.68397 -23.1852,-140.68478 -113.1763,-261.56532 -241.4426,-324.317781 -157.4347,-77.02266 -343.4991,-53.90726 -477.9029,59.371491 -99.0109,83.44868 -156.589,207.22833 -156.589,336.63026 0,150.24187 76.6483,289.80403 204.1975,371.80541 57.3091,36.84398 129.2807,61.58135 195.2944,67.12461 7.15,0.6004 14.8,1.26769 17,1.48288 8.9066,0.87117 57.9026,-0.40094 70.8774,-1.84024 z"
       id="path2-3"
       sodipodi:nodetypes="sssssssssssssssssssssssss" />
    <path
       d="m 3356.3268,729.86549 c -5.9453,-2.77554 -10.7672,-7.70599 -13.598,-13.90432 -1.5765,-3.45181 -1.8155,-20.04584 -2.3086,-160.30537 l -0.55,-156.455 -31.9032,29.62158 c -18.627,17.29497 -33.9591,30.65058 -36.8437,32.09433 -3.618,1.81081 -6.874,2.47273 -12.1632,2.47273 -13.9485,0 -25.0182,-9.70504 -26.1118,-22.89276 -0.9894,-11.93153 -10.277,-2.61362 154.8207,-155.32561 83.0166,-76.78858 153.0052,-140.85322 155.5303,-142.36587 6.2236,-3.72815 18.8537,-3.89814 25.4932,-0.34312 4.2142,2.25642 289.3106,265.26931 304.275,280.70577 5.583,5.75923 7.5427,8.6539 8.5399,12.61362 3.9059,15.51184 -8.4787,30.45531 -25.2401,30.45531 -3.5491,0 -8.5098,-0.82305 -11.024,-1.829 -3.1434,-1.25775 -15.434,-11.86556 -39.351,-33.96312 l -34.78,-32.13412 -0.5501,158.00023 c -0.5109,146.7623 -0.6847,158.24623 -2.4431,161.45884 -2.4216,4.42418 -7.8258,9.82847 -12.25,12.25005 -3.2295,1.76765 -16.3953,1.91101 -198.7277,2.16387 l -195.2691,0.2708 z"
       style="fill:#ffffff;stroke-width:1.10011"
       id="path1" />
    <rect
       style="fill:#ff0000;stroke:#ff0000;stroke-width:4.15789"
       id="rect3"
       width="129.99632"
       height="252.56427"
       x="3492.3394"
       y="478.70447" />
  </g>
</svg>
